<svg xmlns="http://www.w3.org/2000/svg" viewBox="0 0 706 706" width="100%" height="100%">
  <!-- Outer blue ring -->
  <circle cx="353.0" cy="353.0" r="334" fill="none" stroke="#0e4e9e" stroke-width="29" />
  <!-- Blue hands -->
  <path d="M 257 420 L 261 421 L 265 429 L 265 434 L 266 435 L 266 441 L 265 442 L 266 444 L 265 445 L 265 471 L 269 490 L 275 504 L 281 513 L 295 527 L 300 528 L 302 526 L 291 506 L 288 496 L 288 489 L 287 488 L 288 476 L 290 474 L 293 474 L 298 481 L 298 483 L 300 485 L 307 500 L 331 532 L 339 549 L 343 564 L 344 578 L 345 579 L 344 581 L 345 582 L 345 598 L 346 599 L 345 602 L 346 603 L 346 618 L 347 619 L 346 623 L 347 624 L 347 671 L 348 672 L 357 672 L 359 667 L 358 643 L 359 642 L 359 603 L 360 602 L 359 599 L 360 598 L 360 585 L 361 584 L 360 582 L 361 581 L 361 572 L 362 571 L 363 561 L 369 543 L 383 519 L 398 500 L 408 479 L 412 474 L 415 474 L 417 476 L 418 491 L 415 503 L 410 512 L 410 514 L 404 523 L 403 528 L 404 529 L 408 528 L 415 523 L 427 509 L 435 493 L 440 473 L 440 428 L 444 421 L 447 420 L 449 421 L 452 427 L 455 438 L 458 464 L 459 465 L 458 466 L 459 467 L 459 488 L 460 489 L 459 514 L 456 524 L 449 538 L 441 550 L 403 597 L 399 605 L 395 620 L 395 629 L 394 630 L 395 645 L 396 646 L 396 652 L 399 667 L 404 668 L 420 665 L 420 691 L 405 694 L 399 694 L 398 695 L 380 696 L 379 697 L 327 697 L 326 696 L 301 694 L 280 690 L 280 663 L 301 668 L 304 668 L 306 666 L 310 645 L 310 637 L 311 636 L 310 631 L 311 629 L 310 628 L 309 615 L 302 598 L 294 586 L 286 578 L 265 552 L 256 538 L 247 519 L 245 510 L 245 483 L 246 482 L 246 469 L 247 468 L 246 467 L 247 466 L 247 460 L 248 459 L 247 458 L 249 451 L 248 450 L 250 444 L 251 433 L 253 426 L 257 420 Z" fill="#0e4e9e" />
  <!-- Dark green pills / capsule halves -->
  <path d="M 416 168 L 432 191 L 434 196 L 434 204 L 430 211 L 426 214 L 420 216 L 412 214 L 407 211 L 390 186 L 416 168 Z" fill="#39b44a" />
  <path d="M 285 170 L 292 173 L 313 186 L 298 211 L 295 214 L 288 217 L 282 217 L 277 215 L 274 213 L 270 205 L 270 196 L 285 170 Z" fill="#39b44a" />
  <path d="M 352 175 L 362 175 L 369 178 L 369 179 L 340 218 L 334 211 L 332 205 L 332 194 L 335 187 L 341 180 L 352 175 Z" fill="#39b44a" />
  <path d="M 373 182 L 377 185 L 381 193 L 381 206 L 378 213 L 370 221 L 363 224 L 356 225 L 345 222 L 344 221 L 346 218 L 373 182 Z" fill="#39b44a" />
  <path d="M 475 209 L 478 210 L 479 221 L 482 233 L 482 243 L 478 250 L 472 254 L 466 255 L 458 252 L 452 245 L 447 215 L 452 213 L 474 210 L 475 209 Z" fill="#39b44a" />
  <path d="M 230 213 L 260 222 L 251 252 L 246 257 L 237 260 L 230 258 L 224 252 L 221 242 L 223 239 L 230 213 Z" fill="#39b44a" />
  <path d="M 368 255 L 398 265 L 387 295 L 381 300 L 375 302 L 366 300 L 361 295 L 359 291 L 359 280 L 368 255 Z" fill="#39b44a" />
  <path d="M 431 255 L 443 255 L 452 259 L 457 264 L 461 271 L 462 282 L 414 272 L 414 269 L 418 263 L 424 258 L 431 255 Z" fill="#39b44a" />
  <path d="M 210 257 L 211 257 L 212 260 L 218 288 L 217 293 L 214 298 L 207 303 L 202 304 L 192 300 L 189 297 L 184 281 L 181 264 L 210 257 Z" fill="#39b44a" />
  <path d="M 335 258 L 337 259 L 338 263 L 338 267 L 343 285 L 343 292 L 342 295 L 337 301 L 331 304 L 325 304 L 318 301 L 312 293 L 306 265 L 335 258 Z" fill="#39b44a" />
  <path d="M 495 260 L 525 263 L 526 264 L 523 293 L 519 300 L 513 304 L 504 305 L 497 301 L 493 296 L 491 287 L 493 282 L 493 275 L 495 266 L 494 262 L 495 260 Z" fill="#39b44a" />
  <path d="M 413 277 L 433 282 L 461 287 L 461 288 L 457 295 L 452 300 L 443 304 L 432 304 L 424 301 L 416 293 L 413 287 L 413 282 L 412 281 L 413 277 Z" fill="#39b44a" />
  <path d="M 241 278 L 264 294 L 266 297 L 248 322 L 242 325 L 233 325 L 226 320 L 223 314 L 223 304 L 241 278 Z" fill="#39b44a" />
  <path d="M 522 316 L 549 333 L 532 359 L 525 363 L 516 363 L 509 359 L 504 346 L 506 344 L 507 339 L 522 316 Z" fill="#39b44a" />
  <path d="M 182 317 L 183 317 L 189 328 L 189 330 L 196 343 L 197 352 L 194 358 L 190 362 L 180 365 L 169 359 L 155 331 L 182 317 Z" fill="#39b44a" />
  <path d="M 347 323 L 349 324 L 350 323 L 358 324 L 368 330 L 373 337 L 375 343 L 375 350 L 328 341 L 327 338 L 334 329 L 347 323 Z" fill="#39b44a" />
  <path d="M 430 338 L 433 340 L 446 365 L 445 377 L 442 381 L 435 385 L 431 384 L 428 385 L 422 383 L 417 378 L 404 354 L 410 349 L 430 338 Z" fill="#39b44a" />
  <path d="M 223 341 L 230 341 L 238 344 L 245 350 L 250 359 L 251 368 L 249 376 L 246 381 L 236 389 L 221 344 L 221 342 L 223 341 Z" fill="#39b44a" />
  <path d="M 273 341 L 300 355 L 300 357 L 288 378 L 288 380 L 282 386 L 277 388 L 270 388 L 265 386 L 259 378 L 259 366 L 273 341 Z" fill="#39b44a" />
  <path d="M 214 344 L 216 344 L 216 347 L 231 390 L 230 391 L 222 391 L 213 388 L 206 382 L 203 377 L 201 371 L 201 361 L 203 355 L 207 349 L 214 344 Z" fill="#39b44a" />
  <path d="M 325 346 L 367 354 L 374 356 L 374 357 L 370 364 L 363 370 L 355 373 L 346 373 L 336 369 L 330 363 L 326 355 L 325 346 Z" fill="#39b44a" />
  <path d="M 462 348 L 493 351 L 491 371 L 490 372 L 491 373 L 490 374 L 490 380 L 488 385 L 483 390 L 479 392 L 476 393 L 475 392 L 472 393 L 469 392 L 462 387 L 459 381 L 459 370 L 460 369 L 459 368 L 460 367 L 459 363 L 461 359 L 460 357 L 462 348 Z" fill="#39b44a" />
  <path d="M 184 389 L 197 400 L 206 410 L 208 414 L 208 424 L 206 428 L 200 433 L 188 434 L 182 431 L 163 411 L 165 407 L 184 389 Z" fill="#39b44a" />
  <path d="M 522 389 L 542 411 L 542 413 L 519 433 L 507 434 L 500 430 L 497 425 L 497 413 L 498 410 L 506 402 L 522 389 Z" fill="#39b44a" />
  <path d="M 416 409 L 419 409 L 433 436 L 432 447 L 427 453 L 420 456 L 419 455 L 415 456 L 410 454 L 405 450 L 391 425 L 391 423 L 416 409 Z" fill="#39b44a" />
  <path d="M 287 410 L 315 424 L 301 451 L 298 454 L 292 457 L 284 457 L 278 454 L 276 450 L 274 449 L 272 439 L 287 410 Z" fill="#39b44a" />
  <path d="M 469 414 L 473 414 L 479 417 L 482 421 L 483 427 L 460 423 L 459 422 L 460 420 L 464 416 L 469 414 Z" fill="#39b44a" />
  <path d="M 226 420 L 227 421 L 228 420 L 233 421 L 238 424 L 242 430 L 243 437 L 213 431 L 213 429 L 217 424 L 226 420 Z" fill="#39b44a" />
  <path d="M 458 426 L 481 430 L 482 432 L 476 438 L 469 439 L 464 437 L 460 433 L 458 426 Z" fill="#39b44a" />
  <path d="M 342 430 L 369 430 L 369 454 L 370 455 L 369 463 L 366 468 L 359 473 L 355 474 L 350 473 L 344 470 L 339 463 L 337 455 L 338 453 L 338 446 L 337 445 L 338 431 L 342 430 Z" fill="#39b44a" />
  <path d="M 212 435 L 240 440 L 242 442 L 236 449 L 232 451 L 223 451 L 216 447 L 213 442 L 212 435 Z" fill="#39b44a" />
  <path d="M 214 464 L 234 484 L 238 492 L 238 498 L 234 506 L 230 509 L 227 509 L 223 511 L 222 510 L 220 511 L 213 508 L 192 487 L 214 464 Z" fill="#39b44a" />
  <path d="M 490 468 L 507 482 L 513 489 L 492 512 L 487 514 L 479 514 L 471 509 L 468 501 L 468 495 L 473 486 L 490 468 Z" fill="#39b44a" />
  <path d="M 343 483 L 351 483 L 358 486 L 363 491 L 365 495 L 366 502 L 330 495 L 337 486 L 343 483 Z" fill="#39b44a" />
  <path d="M 330 500 L 365 507 L 363 511 L 358 516 L 351 519 L 345 519 L 339 517 L 333 512 L 330 506 L 330 500 Z" fill="#39b44a" />
  <!-- Light green capsule halves -->
  <path d="M 311 137 L 317 137 L 318 138 L 319 137 L 322 139 L 327 143 L 330 150 L 329 158 L 313 185 L 301 177 L 285 169 L 287 168 L 301 143 L 304 140 L 311 137 Z" fill="#7ec675" />
  <path d="M 383 137 L 392 137 L 397 140 L 416 167 L 390 185 L 374 161 L 372 160 L 373 159 L 372 158 L 372 148 L 373 147 L 372 146 L 378 140 L 383 137 Z" fill="#7ec675" />
  <path d="M 455 167 L 456 168 L 458 167 L 463 168 L 468 171 L 471 175 L 474 186 L 477 208 L 451 212 L 445 214 L 446 213 L 445 211 L 446 208 L 444 205 L 445 202 L 443 200 L 444 197 L 442 194 L 443 191 L 441 188 L 442 187 L 442 178 L 443 175 L 448 170 L 455 167 Z" fill="#7ec675" />
  <path d="M 251 173 L 252 174 L 255 173 L 257 175 L 260 175 L 264 177 L 269 185 L 269 193 L 267 197 L 261 221 L 236 213 L 229 212 L 231 211 L 230 210 L 232 208 L 232 205 L 238 187 L 237 186 L 243 177 L 249 175 L 251 173 Z" fill="#7ec675" />
  <path d="M 370 178 L 373 181 L 343 221 L 349 225 L 354 226 L 359 226 L 369 223 L 365 226 L 359 228 L 348 228 L 341 225 L 332 216 L 329 208 L 329 199 L 331 193 L 331 206 L 332 209 L 337 217 L 340 219 L 370 178 Z" fill="#7ec675" />
  <path d="M 189 216 L 197 218 L 203 224 L 211 256 L 179 264 L 180 260 L 177 253 L 178 251 L 176 243 L 174 240 L 175 239 L 174 237 L 174 228 L 179 220 L 189 216 Z" fill="#7ec675" />
  <path d="M 313 217 L 317 217 L 324 220 L 329 226 L 336 257 L 306 264 L 304 261 L 305 259 L 303 257 L 304 255 L 303 250 L 301 248 L 302 246 L 300 244 L 301 242 L 299 237 L 299 230 L 301 225 L 306 220 L 313 217 Z" fill="#7ec675" />
  <path d="M 391 217 L 395 217 L 403 220 L 407 224 L 409 229 L 409 236 L 399 264 L 377 257 L 374 255 L 368 254 L 371 249 L 379 225 L 385 219 L 391 217 Z" fill="#7ec675" />
  <path d="M 510 217 L 511 218 L 523 219 L 527 223 L 530 229 L 527 263 L 518 261 L 494 259 L 496 258 L 495 254 L 497 249 L 497 242 L 498 241 L 497 237 L 499 233 L 498 229 L 501 224 L 510 217 Z" fill="#7ec675" />
  <path d="M 270 247 L 275 249 L 276 248 L 284 254 L 287 264 L 285 271 L 267 295 L 241 277 L 245 273 L 257 255 L 262 250 L 270 247 Z" fill="#7ec675" />
  <path d="M 451 258 L 456 260 L 463 267 L 466 274 L 466 287 L 462 295 L 456 301 L 448 305 L 436 305 L 444 305 L 452 301 L 459 294 L 462 287 L 448 283 L 415 277 L 412 276 L 412 275 L 413 273 L 416 273 L 462 283 L 463 282 L 462 271 L 459 265 L 451 258 Z" fill="#7ec675" />
  <path d="M 429 259 L 430 260 L 437 260 L 427 260 L 429 259 Z" fill="#7ec675" />
  <path d="M 153 282 L 161 283 L 169 289 L 181 314 L 183 316 L 158 328 L 154 331 L 154 329 L 150 321 L 148 320 L 149 319 L 146 315 L 139 299 L 142 290 L 147 285 L 153 282 Z" fill="#7ec675" />
  <path d="M 546 285 L 556 285 L 563 289 L 567 295 L 566 307 L 550 332 L 522 315 L 524 314 L 538 291 L 546 285 Z" fill="#7ec675" />
  <path d="M 400 304 L 410 305 L 417 311 L 431 337 L 408 349 L 403 353 L 403 351 L 391 329 L 389 328 L 390 327 L 387 321 L 391 310 L 400 304 Z" fill="#7ec675" />
  <path d="M 479 305 L 488 306 L 494 311 L 496 315 L 497 323 L 495 330 L 496 331 L 495 332 L 493 350 L 471 348 L 470 347 L 461 347 L 463 344 L 462 340 L 463 337 L 462 336 L 464 334 L 463 332 L 465 327 L 464 326 L 465 325 L 464 321 L 466 318 L 466 315 L 471 308 L 479 305 Z" fill="#7ec675" />
  <path d="M 302 306 L 314 313 L 316 317 L 316 327 L 301 355 L 286 346 L 272 340 L 274 339 L 287 314 L 292 309 L 302 306 Z" fill="#7ec675" />
  <path d="M 363 326 L 370 329 L 377 337 L 380 348 L 379 356 L 375 364 L 369 370 L 359 374 L 351 374 L 359 373 L 366 369 L 371 364 L 375 356 L 372 354 L 368 354 L 363 352 L 325 345 L 326 341 L 351 347 L 370 350 L 375 352 L 376 351 L 375 339 L 371 332 L 366 327 L 363 326 Z" fill="#7ec675" />
  <path d="M 218 342 L 220 342 L 227 363 L 227 366 L 234 387 L 236 390 L 240 388 L 248 380 L 251 373 L 252 366 L 252 375 L 249 383 L 243 390 L 233 395 L 218 394 L 208 387 L 206 384 L 206 383 L 213 389 L 221 392 L 230 392 L 232 390 L 216 343 L 218 342 Z" fill="#7ec675" />
  <path d="M 148 363 L 158 363 L 160 364 L 184 387 L 161 410 L 140 388 L 138 384 L 137 378 L 139 371 L 148 363 Z" fill="#7ec675" />
  <path d="M 552 366 L 553 367 L 554 366 L 560 367 L 564 369 L 570 376 L 571 382 L 570 387 L 567 392 L 544 412 L 522 388 L 526 386 L 537 375 L 540 374 L 545 369 L 552 366 Z" fill="#7ec675" />
  <path d="M 389 374 L 395 375 L 402 379 L 418 407 L 390 423 L 380 405 L 376 395 L 374 393 L 375 392 L 374 388 L 376 386 L 377 382 L 382 377 L 389 374 Z" fill="#7ec675" />
  <path d="M 314 375 L 321 377 L 326 380 L 329 383 L 331 389 L 330 397 L 316 424 L 293 411 L 287 409 L 291 404 L 297 390 L 299 389 L 302 382 L 305 379 L 314 375 Z" fill="#7ec675" />
  <path d="M 354 385 L 362 388 L 367 394 L 368 406 L 369 407 L 368 408 L 369 412 L 369 429 L 342 429 L 337 430 L 338 429 L 338 421 L 336 413 L 337 410 L 336 400 L 342 389 L 348 386 L 353 386 L 354 385 Z" fill="#7ec675" />
  <path d="M 482 419 L 485 424 L 485 430 L 484 433 L 477 439 L 474 439 L 478 438 L 482 434 L 483 432 L 482 429 L 468 427 L 463 425 L 458 425 L 459 423 L 464 425 L 483 428 L 484 423 L 482 419 Z" fill="#7ec675" />
  <path d="M 239 424 L 243 427 L 245 431 L 246 435 L 245 436 L 246 438 L 245 442 L 243 446 L 238 450 L 233 452 L 227 452 L 235 451 L 242 444 L 243 441 L 241 439 L 213 434 L 212 431 L 216 433 L 243 438 L 244 437 L 244 432 L 239 424 Z" fill="#7ec675" />
  <path d="M 177 439 L 186 439 L 191 441 L 213 463 L 191 487 L 171 466 L 166 455 L 170 445 L 177 439 Z" fill="#7ec675" />
  <path d="M 523 440 L 526 442 L 527 441 L 535 448 L 537 452 L 537 460 L 534 466 L 514 488 L 495 471 L 491 466 L 512 443 L 523 440 Z" fill="#7ec675" />
  <path d="M 361 487 L 366 491 L 368 495 L 369 505 L 366 512 L 361 517 L 357 519 L 353 519 L 357 518 L 364 511 L 366 507 L 364 505 L 331 499 L 330 496 L 360 502 L 365 504 L 367 502 L 367 498 L 361 487 Z" fill="#7ec675" />
  <!-- White highlights -->
  <path d="M 387 139 L 388 140 L 392 140 L 394 141 L 399 146 L 399 147 L 398 148 L 398 147 L 391 141 L 387 141 L 386 140 L 387 139 Z" fill="#ffffff" fill-opacity="0.8" />
  <path d="M 325 146 L 327 149 L 327 156 L 326 157 L 326 159 L 323 161 L 326 155 L 325 146 Z" fill="#ffffff" fill-opacity="0.8" />
  <path d="M 462 171 L 465 172 L 468 175 L 470 179 L 470 183 L 469 183 L 468 178 L 462 172 L 462 171 Z" fill="#ffffff" fill-opacity="0.8" />
  <path d="M 263 180 L 266 185 L 266 194 L 265 195 L 264 195 L 265 193 L 265 186 L 262 181 L 263 180 Z" fill="#ffffff" fill-opacity="0.8" />
  <path d="M 193 220 L 195 220 L 200 224 L 202 228 L 202 232 L 200 227 L 195 222 L 194 222 L 193 220 Z" fill="#ffffff" fill-opacity="0.8" />
  <path d="M 319 221 L 322 222 L 326 226 L 328 231 L 327 233 L 325 227 L 321 223 L 320 223 L 319 221 Z" fill="#ffffff" fill-opacity="0.8" />
  <path d="M 522 223 L 525 225 L 527 229 L 527 236 L 526 237 L 526 230 L 522 223 Z" fill="#ffffff" fill-opacity="0.8" />
  <path d="M 403 225 L 405 226 L 405 228 L 406 229 L 406 237 L 405 239 L 404 239 L 404 237 L 405 236 L 405 230 L 403 225 Z" fill="#ffffff" fill-opacity="0.8" />
  <path d="M 282 258 L 283 258 L 283 260 L 284 261 L 284 266 L 282 271 L 280 273 L 279 272 L 281 270 L 283 265 L 282 258 Z" fill="#ffffff" fill-opacity="0.8" />
  <path d="M 157 285 L 159 285 L 163 287 L 167 291 L 168 294 L 167 295 L 166 292 L 162 288 L 157 286 L 157 285 Z" fill="#ffffff" fill-opacity="0.8" />
  <path d="M 563 294 L 564 295 L 564 305 L 561 309 L 560 308 L 563 304 L 563 296 L 562 295 L 563 294 Z" fill="#ffffff" fill-opacity="0.8" />
  <path d="M 404 307 L 408 307 L 413 310 L 416 314 L 416 316 L 415 316 L 409 309 L 404 308 L 404 307 Z" fill="#ffffff" fill-opacity="0.8" />
  <path d="M 489 310 L 492 313 L 494 317 L 494 324 L 493 324 L 493 319 L 492 318 L 492 316 L 488 311 L 489 310 Z" fill="#ffffff" fill-opacity="0.8" />
  <path d="M 311 316 L 313 317 L 313 321 L 314 322 L 312 330 L 310 330 L 312 326 L 312 319 L 311 318 L 311 316 Z" fill="#ffffff" fill-opacity="0.8" />
  <path d="M 151 365 L 158 366 L 163 369 L 164 371 L 163 372 L 157 367 L 150 367 L 151 365 Z" fill="#ffffff" fill-opacity="0.8" />
  <path d="M 391 377 L 398 379 L 402 383 L 403 386 L 402 386 L 398 381 L 395 379 L 392 379 L 391 377 Z" fill="#ffffff" fill-opacity="0.8" />
  <path d="M 567 380 L 568 380 L 567 387 L 566 389 L 562 393 L 561 393 L 566 386 L 567 380 Z" fill="#ffffff" fill-opacity="0.8" />
  <path d="M 326 385 L 327 385 L 327 387 L 328 388 L 328 395 L 327 396 L 327 398 L 325 399 L 327 394 L 326 385 Z" fill="#ffffff" fill-opacity="0.8" />
  <path d="M 359 390 L 360 390 L 364 394 L 366 399 L 366 403 L 365 403 L 363 395 L 359 391 L 359 390 Z" fill="#ffffff" fill-opacity="0.8" />
  <path d="M 182 441 L 187 442 L 191 444 L 193 447 L 191 447 L 186 443 L 180 443 L 179 442 L 181 442 L 182 441 Z" fill="#ffffff" fill-opacity="0.8" />
  <path d="M 533 453 L 534 453 L 534 460 L 531 466 L 529 466 L 533 459 L 533 453 Z" fill="#ffffff" fill-opacity="0.8" />
</svg>