<svg xmlns="http://www.w3.org/2000/svg" viewBox="0 0 265 84" width="100%" height="100%">
  <!-- Logo Mark on the left (scaled) -->
  <!-- Typography on the right -->
  <path d="M 133 33 L 135 33 L 136 34 L 138 34 L 139 35 L 140 35 L 143 39 L 143 44 L 142 45 L 142 48 L 141 49 L 141 55 L 140 56 L 140 58 L 135 58 L 135 57 L 136 56 L 136 51 L 137 50 L 137 46 L 138 45 L 138 40 L 136 38 L 131 38 L 128 40 L 128 41 L 127 42 L 127 45 L 126 46 L 126 50 L 125 51 L 125 55 L 124 56 L 124 58 L 119 58 L 119 57 L 120 56 L 120 53 L 121 52 L 121 47 L 122 46 L 122 43 L 123 42 L 123 40 L 124 39 L 124 38 L 127 35 L 129 35 L 130 34 L 132 34 L 133 33 Z" fill="#0e4e9e" />
  <path d="M 170 33 L 171 33 L 172 34 L 174 34 L 177 37 L 181 34 L 186 33 L 187 34 L 190 35 L 192 37 L 192 44 L 191 45 L 191 48 L 190 49 L 190 55 L 189 56 L 189 58 L 184 58 L 184 57 L 185 56 L 185 51 L 186 50 L 186 46 L 187 45 L 187 40 L 185 38 L 182 38 L 179 41 L 179 43 L 178 44 L 178 47 L 177 48 L 177 53 L 176 54 L 176 58 L 171 58 L 171 56 L 172 55 L 172 49 L 173 48 L 173 45 L 174 44 L 174 40 L 172 38 L 168 38 L 166 40 L 166 42 L 165 43 L 165 46 L 164 47 L 164 52 L 163 53 L 163 57 L 162 58 L 158 58 L 158 54 L 159 53 L 159 48 L 160 47 L 160 44 L 161 43 L 161 40 L 162 39 L 162 38 L 165 35 L 166 35 L 167 34 L 169 34 L 170 33 Z" fill="#0e4e9e" />
  <path d="M 232 33 L 234 33 L 235 34 L 237 34 L 238 35 L 239 35 L 242 39 L 242 44 L 241 45 L 241 50 L 240 51 L 240 54 L 239 55 L 239 58 L 234 58 L 234 56 L 235 55 L 235 52 L 236 51 L 236 46 L 237 45 L 237 40 L 235 38 L 230 38 L 226 42 L 226 46 L 225 47 L 225 51 L 224 52 L 224 56 L 223 57 L 223 58 L 219 58 L 219 53 L 220 52 L 220 48 L 221 47 L 221 42 L 222 41 L 223 38 L 226 35 L 228 35 L 229 34 L 231 34 L 232 33 Z" fill="#0e4e9e" />
  <path d="M 79 34 L 83 34 L 83 38 L 82 39 L 82 42 L 81 43 L 81 48 L 80 49 L 80 53 L 81 54 L 92 54 L 92 55 L 91 56 L 91 58 L 74 58 L 74 55 L 75 54 L 75 51 L 76 50 L 76 45 L 77 44 L 77 40 L 78 39 L 78 35 L 79 34 Z" fill="#0e4e9e" />
  <path d="M 101 34 L 118 34 L 118 37 L 117 38 L 106 38 L 104 40 L 104 43 L 105 44 L 114 44 L 114 47 L 113 48 L 104 48 L 102 51 L 102 53 L 103 54 L 114 54 L 114 58 L 96 58 L 96 57 L 97 56 L 97 53 L 98 52 L 98 47 L 99 46 L 99 41 L 100 40 L 100 37 L 101 36 L 101 34 Z" fill="#0e4e9e" />
  <path d="M 151 34 L 156 34 L 155 35 L 155 40 L 154 41 L 154 45 L 153 46 L 153 50 L 152 51 L 152 56 L 151 57 L 151 58 L 146 58 L 147 57 L 147 53 L 148 52 L 148 47 L 149 46 L 149 42 L 150 41 L 150 36 L 151 35 L 151 34 Z" fill="#0e4e9e" />
  <path d="M 200 34 L 217 34 L 217 38 L 205 38 L 204 39 L 204 40 L 203 41 L 203 43 L 204 44 L 213 44 L 213 47 L 212 48 L 203 48 L 201 51 L 201 53 L 202 54 L 213 54 L 213 58 L 195 58 L 196 57 L 196 53 L 197 52 L 197 48 L 198 47 L 198 42 L 199 41 L 199 37 L 200 36 L 200 34 Z" fill="#0e4e9e" />
  <path d="M 95 64 L 98 65 L 100 67 L 100 71 L 97 75 L 95 75 L 94 76 L 93 76 L 92 75 L 90 75 L 89 74 L 89 68 L 92 65 L 94 65 L 95 64 Z" fill="#0e4e9e" />
  <path d="M 131 64 L 134 65 L 136 67 L 136 68 L 135 68 L 133 66 L 129 66 L 126 69 L 126 72 L 129 75 L 130 75 L 133 73 L 135 73 L 133 75 L 131 75 L 130 76 L 129 76 L 128 75 L 126 75 L 125 74 L 125 68 L 128 65 L 130 65 L 131 64 Z" fill="#0e4e9e" />
  <path d="M 73 65 L 79 65 L 80 66 L 80 68 L 78 70 L 79 71 L 79 75 L 72 75 L 72 66 L 73 65 Z" fill="#0e4e9e" />
  <path d="M 85 65 L 86 65 L 86 67 L 85 68 L 85 72 L 84 73 L 84 75 L 83 75 L 83 71 L 84 70 L 84 67 L 85 66 L 85 65 Z" fill="#0e4e9e" />
  <path d="M 103 65 L 112 65 L 111 66 L 109 66 L 108 67 L 108 68 L 107 69 L 107 72 L 106 73 L 106 75 L 105 75 L 105 72 L 106 71 L 106 67 L 105 66 L 103 66 L 103 65 Z" fill="#0e4e9e" />
  <path d="M 115 65 L 123 65 L 122 66 L 117 66 L 116 67 L 116 69 L 117 70 L 120 70 L 117 70 L 115 72 L 115 73 L 116 74 L 121 74 L 121 75 L 113 75 L 113 74 L 114 73 L 114 68 L 115 67 L 115 65 Z" fill="#0e4e9e" />
  <path d="M 141 65 L 142 65 L 141 68 L 143 70 L 146 70 L 148 68 L 148 65 L 150 65 L 150 66 L 149 67 L 149 70 L 148 71 L 148 75 L 146 75 L 147 74 L 147 72 L 145 70 L 143 70 L 140 73 L 140 75 L 139 75 L 139 71 L 140 70 L 140 66 L 141 65 Z" fill="#0e4e9e" />
</svg>